<mxfile host="Electron" agent="Mozilla/5.0 (Windows NT 10.0; Win64; x64) AppleWebKit/537.36 (KHTML, like Gecko) draw.io/28.1.2 Chrome/138.0.7204.243 Electron/37.4.0 Safari/537.36" version="28.1.2">
  <diagram name="Sayfa -1" id="F7tNqHv3LjhNsGCZB8kg">
    <mxGraphModel dx="1482" dy="867" grid="1" gridSize="10" guides="1" tooltips="1" connect="1" arrows="1" fold="1" page="1" pageScale="1" pageWidth="827" pageHeight="1169" math="0" shadow="0">
      <root>
        <mxCell id="0" />
        <mxCell id="1" parent="0" />
        <mxCell id="Bvlm6xu5cDF6GILUwSXI-2" value="&lt;div&gt;&lt;br&gt;&lt;/div&gt;" style="rounded=0;whiteSpace=wrap;html=1;fontSize=14;dashed=1;glass=0;align=center;verticalAlign=top;fontStyle=1;labelBackgroundColor=#00CCCC;fillColor=#dae8fc;strokeColor=#6c8ebf;" vertex="1" parent="1">
          <mxGeometry x="1260" y="255" width="820" height="325" as="geometry" />
        </mxCell>
        <mxCell id="a_NrzUOy0uOCVNg9u8zf-2" style="edgeStyle=orthogonalEdgeStyle;rounded=0;html=1;entryX=0.5;entryY=0;entryDx=0;entryDy=0;" parent="1" edge="1">
          <mxGeometry relative="1" as="geometry">
            <mxPoint x="605.2211764705883" y="390" as="sourcePoint" />
            <mxPoint x="605.2699999999998" y="422.5" as="targetPoint" />
          </mxGeometry>
        </mxCell>
        <mxCell id="a_NrzUOy0uOCVNg9u8zf-3" value="&lt;div&gt;&lt;br&gt;&lt;/div&gt;" style="rounded=0;whiteSpace=wrap;html=1;fontSize=14;dashed=1;glass=0;align=center;verticalAlign=top;fontStyle=1;labelBackgroundColor=#00CCCC;fillColor=#dae8fc;strokeColor=#6c8ebf;" parent="1" vertex="1">
          <mxGeometry x="480" y="230" width="770" height="720" as="geometry" />
        </mxCell>
        <mxCell id="a_NrzUOy0uOCVNg9u8zf-60" style="edgeStyle=orthogonalEdgeStyle;rounded=0;orthogonalLoop=1;jettySize=auto;html=1;exitX=1;exitY=0.5;exitDx=0;exitDy=0;" parent="1" source="a_NrzUOy0uOCVNg9u8zf-5" target="a_NrzUOy0uOCVNg9u8zf-58" edge="1">
          <mxGeometry relative="1" as="geometry" />
        </mxCell>
        <object label="Task_1_()" hedietLinkedDataV1_path="../../Libraries/source/TaskElevatorAlgorithm.c" hedietLinkedDataV1_symbol="mainStateMachine" id="a_NrzUOy0uOCVNg9u8zf-5">
          <mxCell style="ellipse;whiteSpace=wrap;html=1;fillColor=#008a00;strokeColor=#005700;fontColor=#ffffff;" parent="1" vertex="1">
            <mxGeometry x="535.2399999999997" y="280" width="160" height="60" as="geometry" />
          </mxCell>
        </object>
        <mxCell id="a_NrzUOy0uOCVNg9u8zf-15" value="_EVENT_A_DONE" style="edgeStyle=orthogonalEdgeStyle;rounded=0;orthogonalLoop=1;jettySize=auto;html=1;fontSize=12;exitX=1;exitY=1;exitDx=0;exitDy=0;" parent="1" source="a_NrzUOy0uOCVNg9u8zf-16" target="a_NrzUOy0uOCVNg9u8zf-61" edge="1">
          <mxGeometry x="0.1083" relative="1" as="geometry">
            <mxPoint as="offset" />
            <mxPoint x="613.7699999999998" y="645.6199999999999" as="targetPoint" />
          </mxGeometry>
        </mxCell>
        <object label="prvStates_AEventCheck()" hedietLinkedDataV1_path="../../Libraries/source/TaskElevatorAlgorithm.c" hedietLinkedDataV1_symbol="prvCommonStates_PhaseCheck(void)" id="a_NrzUOy0uOCVNg9u8zf-16">
          <mxCell style="rhombus;whiteSpace=wrap;html=1;fontSize=12;fillColor=#d5e8d4;strokeColor=#82b366;gradientColor=#97d077;" parent="1" vertex="1">
            <mxGeometry x="499.09999999999957" y="416.46000000000004" width="235" height="80" as="geometry" />
          </mxCell>
        </object>
        <mxCell id="a_NrzUOy0uOCVNg9u8zf-17" value="_EVENT_A_FAULT" style="edgeStyle=orthogonalEdgeStyle;rounded=0;orthogonalLoop=1;jettySize=auto;html=1;exitX=1;exitY=0.5;exitDx=0;exitDy=0;entryX=0;entryY=0.5;entryDx=0;entryDy=0;fontSize=12;" parent="1" source="a_NrzUOy0uOCVNg9u8zf-16" target="a_NrzUOy0uOCVNg9u8zf-30" edge="1">
          <mxGeometry x="-0.0959" y="-2" relative="1" as="geometry">
            <mxPoint x="699.9899999999991" y="459.6199999999999" as="sourcePoint" />
            <mxPoint as="offset" />
            <mxPoint x="960.2700000000052" y="470.6199999999999" as="targetPoint" />
          </mxGeometry>
        </mxCell>
        <mxCell id="a_NrzUOy0uOCVNg9u8zf-29" style="edgeStyle=orthogonalEdgeStyle;rounded=0;orthogonalLoop=1;jettySize=auto;html=1;entryX=0;entryY=0.5;entryDx=0;entryDy=0;" parent="1" source="a_NrzUOy0uOCVNg9u8zf-30" target="a_NrzUOy0uOCVNg9u8zf-31" edge="1">
          <mxGeometry relative="1" as="geometry" />
        </mxCell>
        <object label="prvExitFromTask()" hedietLinkedDataV1_path="../../Libraries/source/TaskElevatorAlgorithm.c" hedietLinkedDataV1_symbol="prvSetStates_AsStandStill(void)" id="a_NrzUOy0uOCVNg9u8zf-30">
          <mxCell style="rounded=0;whiteSpace=wrap;html=1;fontSize=12;fillColor=#d5e8d4;gradientColor=#97d077;strokeColor=#82b366;" parent="1" vertex="1">
            <mxGeometry x="900" y="443.02" width="245" height="30.88" as="geometry" />
          </mxCell>
        </object>
        <mxCell id="a_NrzUOy0uOCVNg9u8zf-62" style="edgeStyle=orthogonalEdgeStyle;rounded=0;orthogonalLoop=1;jettySize=auto;html=1;entryX=0.5;entryY=0;entryDx=0;entryDy=0;exitX=0.5;exitY=0;exitDx=0;exitDy=0;" parent="1" source="a_NrzUOy0uOCVNg9u8zf-31" target="a_NrzUOy0uOCVNg9u8zf-5" edge="1">
          <mxGeometry relative="1" as="geometry" />
        </mxCell>
        <mxCell id="a_NrzUOy0uOCVNg9u8zf-31" value="" style="ellipse;html=1;shape=endState;fillColor=strokeColor;fontSize=12;" parent="1" vertex="1">
          <mxGeometry x="1190" y="443.9000000000001" width="30" height="30" as="geometry" />
        </mxCell>
        <mxCell id="a_NrzUOy0uOCVNg9u8zf-66" style="edgeStyle=orthogonalEdgeStyle;rounded=0;orthogonalLoop=1;jettySize=auto;html=1;" parent="1" source="a_NrzUOy0uOCVNg9u8zf-32" target="a_NrzUOy0uOCVNg9u8zf-31" edge="1">
          <mxGeometry relative="1" as="geometry" />
        </mxCell>
        <mxCell id="a_NrzUOy0uOCVNg9u8zf-32" value="" style="ellipse;html=1;shape=endState;fillColor=strokeColor;fontSize=12;" parent="1" vertex="1">
          <mxGeometry x="1190" y="714.9999999999998" width="30" height="30" as="geometry" />
        </mxCell>
        <mxCell id="a_NrzUOy0uOCVNg9u8zf-52" value="_EVENT_B_ACTIVE" style="edgeStyle=orthogonalEdgeStyle;rounded=0;orthogonalLoop=1;jettySize=auto;html=1;exitX=1;exitY=0.5;exitDx=0;exitDy=0;entryX=0;entryY=0.5;entryDx=0;entryDy=0;" parent="1" target="a_NrzUOy0uOCVNg9u8zf-32" edge="1">
          <mxGeometry relative="1" as="geometry">
            <mxPoint x="732.7499999999993" y="730" as="sourcePoint" />
          </mxGeometry>
        </mxCell>
        <mxCell id="a_NrzUOy0uOCVNg9u8zf-59" style="edgeStyle=orthogonalEdgeStyle;rounded=0;orthogonalLoop=1;jettySize=auto;html=1;entryX=1;entryY=0;entryDx=0;entryDy=0;" parent="1" source="a_NrzUOy0uOCVNg9u8zf-58" target="a_NrzUOy0uOCVNg9u8zf-16" edge="1">
          <mxGeometry relative="1" as="geometry" />
        </mxCell>
        <object label="prvEntryState_AEventCheck()" hedietLinkedDataV1_path="../../Libraries/source/TaskElevatorAlgorithm.c" hedietLinkedDataV1_symbol="prvSetStates_AsStandStill(void)" id="a_NrzUOy0uOCVNg9u8zf-58">
          <mxCell style="rounded=0;whiteSpace=wrap;html=1;fontSize=12;fillColor=#d5e8d4;gradientColor=#97d077;strokeColor=#82b366;" parent="1" vertex="1">
            <mxGeometry x="680" y="350" width="245" height="30.88" as="geometry" />
          </mxCell>
        </object>
        <mxCell id="a_NrzUOy0uOCVNg9u8zf-65" style="edgeStyle=orthogonalEdgeStyle;rounded=0;orthogonalLoop=1;jettySize=auto;html=1;entryX=0.5;entryY=0;entryDx=0;entryDy=0;" parent="1" source="a_NrzUOy0uOCVNg9u8zf-61" target="a_NrzUOy0uOCVNg9u8zf-64" edge="1">
          <mxGeometry relative="1" as="geometry" />
        </mxCell>
        <object label="prvExitState_AEventCheck()" hedietLinkedDataV1_path="../../Libraries/source/TaskElevatorAlgorithm.c" hedietLinkedDataV1_symbol="prvSetStates_AsStandStill(void)" id="a_NrzUOy0uOCVNg9u8zf-61">
          <mxCell style="rounded=0;whiteSpace=wrap;html=1;fontSize=12;fillColor=#d5e8d4;gradientColor=#97d077;strokeColor=#82b366;" parent="1" vertex="1">
            <mxGeometry x="680" y="554" width="245" height="30.88" as="geometry" />
          </mxCell>
        </object>
        <object label="prvEntryState_BEventCheck()" hedietLinkedDataV1_path="../../Libraries/source/TaskElevatorAlgorithm.c" hedietLinkedDataV1_symbol="prvSetStates_AsStandStill(void)" id="a_NrzUOy0uOCVNg9u8zf-64">
          <mxCell style="rounded=0;whiteSpace=wrap;html=1;fontSize=12;fillColor=#d5e8d4;gradientColor=#97d077;strokeColor=#82b366;" parent="1" vertex="1">
            <mxGeometry x="680" y="620" width="245" height="30.88" as="geometry" />
          </mxCell>
        </object>
        <mxCell id="a_NrzUOy0uOCVNg9u8zf-67" style="edgeStyle=orthogonalEdgeStyle;rounded=0;orthogonalLoop=1;jettySize=auto;html=1;entryX=1;entryY=0;entryDx=0;entryDy=0;" parent="1" source="a_NrzUOy0uOCVNg9u8zf-64" target="a_NrzUOy0uOCVNg9u8zf-79" edge="1">
          <mxGeometry relative="1" as="geometry">
            <mxPoint x="673.9974999999993" y="710" as="targetPoint" />
          </mxGeometry>
        </mxCell>
        <mxCell id="a_NrzUOy0uOCVNg9u8zf-69" value="Exit with Flags" style="text;html=1;align=center;verticalAlign=middle;whiteSpace=wrap;rounded=0;fillColor=none;strokeColor=#6F0000;fontColor=#000000;gradientColor=default;" parent="1" vertex="1">
          <mxGeometry x="1000" y="407.02" width="90" height="30" as="geometry" />
        </mxCell>
        <mxCell id="a_NrzUOy0uOCVNg9u8zf-89" style="edgeStyle=orthogonalEdgeStyle;rounded=0;orthogonalLoop=1;jettySize=auto;html=1;exitX=0.5;exitY=1;exitDx=0;exitDy=0;" parent="1" source="a_NrzUOy0uOCVNg9u8zf-78" target="a_NrzUOy0uOCVNg9u8zf-82" edge="1">
          <mxGeometry relative="1" as="geometry" />
        </mxCell>
        <object label="prvEntryState_BEventCheck()" hedietLinkedDataV1_path="../../Libraries/source/TaskElevatorAlgorithm.c" hedietLinkedDataV1_symbol="prvSetStates_AsStandStill(void)" id="a_NrzUOy0uOCVNg9u8zf-78">
          <mxCell style="rounded=0;whiteSpace=wrap;html=1;fontSize=12;fillColor=#d5e8d4;gradientColor=#97d077;strokeColor=#82b366;" parent="1" vertex="1">
            <mxGeometry x="680" y="830" width="245" height="30.88" as="geometry" />
          </mxCell>
        </object>
        <mxCell id="a_NrzUOy0uOCVNg9u8zf-80" style="edgeStyle=orthogonalEdgeStyle;rounded=0;orthogonalLoop=1;jettySize=auto;html=1;entryX=0.5;entryY=0;entryDx=0;entryDy=0;exitX=1;exitY=1;exitDx=0;exitDy=0;" parent="1" source="a_NrzUOy0uOCVNg9u8zf-79" target="a_NrzUOy0uOCVNg9u8zf-78" edge="1">
          <mxGeometry relative="1" as="geometry" />
        </mxCell>
        <mxCell id="a_NrzUOy0uOCVNg9u8zf-81" value="_EVENT_B_PASSIVE" style="edgeLabel;html=1;align=center;verticalAlign=middle;resizable=0;points=[];" parent="a_NrzUOy0uOCVNg9u8zf-80" vertex="1" connectable="0">
          <mxGeometry x="0.0294" relative="1" as="geometry">
            <mxPoint x="9" as="offset" />
          </mxGeometry>
        </mxCell>
        <object label="prvStates_BEventCheck()" hedietLinkedDataV1_path="../../Libraries/source/TaskElevatorAlgorithm.c" hedietLinkedDataV1_symbol="prvCommonStates_PhaseCheck(void)" id="a_NrzUOy0uOCVNg9u8zf-79">
          <mxCell style="rhombus;whiteSpace=wrap;html=1;fontSize=12;fillColor=#d5e8d4;strokeColor=#82b366;gradientColor=#97d077;" parent="1" vertex="1">
            <mxGeometry x="497.74" y="690" width="235" height="80" as="geometry" />
          </mxCell>
        </object>
        <object label="Task_2_()" hedietLinkedDataV1_path="../../Libraries/source/TaskElevatorAlgorithm.c" hedietLinkedDataV1_symbol="prvTransitionOfStates_ToInMotion(void)" id="a_NrzUOy0uOCVNg9u8zf-82">
          <mxCell style="whiteSpace=wrap;html=1;fontSize=12;labelBackgroundColor=none;fillColor=#1ba1e2;strokeColor=#006EAF;fontColor=#ffffff;" parent="1" vertex="1">
            <mxGeometry x="725" y="890" width="155" height="36" as="geometry" />
          </mxCell>
        </object>
        <mxCell id="a_NrzUOy0uOCVNg9u8zf-84" value="&lt;span style=&quot;&quot;&gt;Exit without/Flags&lt;/span&gt;" style="text;html=1;align=center;verticalAlign=middle;whiteSpace=wrap;rounded=0;fillColor=none;strokeColor=#6F0000;fontColor=default;gradientColor=default;" parent="1" vertex="1">
          <mxGeometry x="1040" y="690" width="115" height="30" as="geometry" />
        </mxCell>
        <mxCell id="a_NrzUOy0uOCVNg9u8zf-85" value="Check Flag for A Event" style="text;html=1;align=center;verticalAlign=middle;whiteSpace=wrap;rounded=0;fillColor=none;strokeColor=#6F0000;fontColor=#000000;gradientColor=default;" parent="1" vertex="1">
          <mxGeometry x="937" y="350" width="153" height="30" as="geometry" />
        </mxCell>
        <mxCell id="a_NrzUOy0uOCVNg9u8zf-86" value="Set Flag for A Event" style="text;html=1;align=center;verticalAlign=middle;whiteSpace=wrap;rounded=0;fillColor=none;strokeColor=#6F0000;fontColor=#000000;gradientColor=default;" parent="1" vertex="1">
          <mxGeometry x="946" y="550" width="153" height="30" as="geometry" />
        </mxCell>
        <mxCell id="a_NrzUOy0uOCVNg9u8zf-87" value="Check Flag for B Event" style="text;html=1;align=center;verticalAlign=middle;whiteSpace=wrap;rounded=0;fillColor=none;strokeColor=#6F0000;fontColor=#000000;gradientColor=default;" parent="1" vertex="1">
          <mxGeometry x="946" y="620" width="153" height="30" as="geometry" />
        </mxCell>
        <mxCell id="a_NrzUOy0uOCVNg9u8zf-88" value="Set Flag for B Event" style="text;html=1;align=center;verticalAlign=middle;whiteSpace=wrap;rounded=0;fillColor=none;strokeColor=#6F0000;fontColor=#000000;gradientColor=default;" parent="1" vertex="1">
          <mxGeometry x="946" y="830" width="153" height="30" as="geometry" />
        </mxCell>
        <mxCell id="a_NrzUOy0uOCVNg9u8zf-95" style="edgeStyle=elbowEdgeStyle;rounded=0;orthogonalLoop=1;jettySize=auto;html=1;fontSize=12;startSize=8;endSize=8;exitX=0.5;exitY=1;exitDx=0;exitDy=0;entryX=0.5;entryY=0;entryDx=0;entryDy=0;" parent="1" source="a_NrzUOy0uOCVNg9u8zf-96" target="a_NrzUOy0uOCVNg9u8zf-148" edge="1">
          <mxGeometry relative="1" as="geometry">
            <mxPoint x="1669" y="6" as="targetPoint" />
            <mxPoint x="1508" y="-31.5" as="sourcePoint" />
          </mxGeometry>
        </mxCell>
        <object label="prvStates_AEventCheck()" hedietLinkedDataV1_path="../../Libraries/source/TaskElevatorAlgorithm.c" hedietLinkedDataV1_symbol="prvCommonStates_CabinPositionCheck(void)" id="a_NrzUOy0uOCVNg9u8zf-96">
          <mxCell style="ellipse;whiteSpace=wrap;html=1;fillColor=#0050ef;strokeColor=#001DBC;fontColor=#ffffff;rounded=0;spacingBottom=0;" parent="1" vertex="1">
            <mxGeometry x="1542" y="272.5" width="250" height="57.5" as="geometry" />
          </mxCell>
        </object>
        <object label="&lt;p style=&quot;line-height: 20%;&quot;&gt;_LSM_Aevent_ED1&lt;/p&gt;" hedietLinkedDataV1_path="../../Libraries/source/TaskElevatorAlgorithm.c" hedietLinkedDataV1_symbol="FLOWCHART_LSM_INPUT_M1_CHECK" id="a_NrzUOy0uOCVNg9u8zf-148">
          <mxCell style="rounded=0;whiteSpace=wrap;html=1;fontSize=10;dashed=1;glass=0;align=right;verticalAlign=top;fontStyle=1;labelBackgroundColor=#66FF66;fillColor=#d5e8d4;strokeColor=#82b366;" parent="1" vertex="1">
            <mxGeometry x="1272" y="353.46" width="790" height="206.54" as="geometry" />
          </mxCell>
        </object>
        <mxCell id="a_NrzUOy0uOCVNg9u8zf-149" value="_INPUT_A_OFF" style="edgeStyle=orthogonalEdgeStyle;rounded=0;orthogonalLoop=1;jettySize=auto;html=1;exitX=1;exitY=0.5;exitDx=0;exitDy=0;" parent="1" source="a_NrzUOy0uOCVNg9u8zf-151" target="Bvlm6xu5cDF6GILUwSXI-1" edge="1">
          <mxGeometry x="-0.4142" relative="1" as="geometry">
            <mxPoint as="offset" />
            <mxPoint x="1839.9999999999982" y="427.4600000000002" as="sourcePoint" />
            <mxPoint x="1974" y="453" as="targetPoint" />
          </mxGeometry>
        </mxCell>
        <mxCell id="a_NrzUOy0uOCVNg9u8zf-150" value="_INPUT_A_ON" style="edgeStyle=orthogonalEdgeStyle;rounded=0;orthogonalLoop=1;jettySize=auto;html=1;" parent="1" source="a_NrzUOy0uOCVNg9u8zf-151" target="a_NrzUOy0uOCVNg9u8zf-187" edge="1">
          <mxGeometry x="-0.1911" relative="1" as="geometry">
            <mxPoint as="offset" />
            <mxPoint x="1348.8857142857146" y="450.4625425339797" as="targetPoint" />
          </mxGeometry>
        </mxCell>
        <mxCell id="a_NrzUOy0uOCVNg9u8zf-151" value="input-&amp;gt;A" style="rhombus;whiteSpace=wrap;html=1;fillColor=#f8cecc;strokeColor=#b85450;" parent="1" vertex="1">
          <mxGeometry x="1570" y="400.46" width="208" height="45" as="geometry" />
        </mxCell>
        <mxCell id="a_NrzUOy0uOCVNg9u8zf-162" style="edgeStyle=orthogonalEdgeStyle;rounded=0;orthogonalLoop=1;jettySize=auto;html=1;entryX=0.5;entryY=0;entryDx=0;entryDy=0;fontSize=12;startSize=8;endSize=8;exitX=1;exitY=0.5;exitDx=0;exitDy=0;exitPerimeter=0;" parent="1" source="a_NrzUOy0uOCVNg9u8zf-163" target="a_NrzUOy0uOCVNg9u8zf-151" edge="1">
          <mxGeometry relative="1" as="geometry" />
        </mxCell>
        <mxCell id="a_NrzUOy0uOCVNg9u8zf-163" value="Start" style="strokeWidth=2;html=1;shape=mxgraph.flowchart.start_2;whiteSpace=wrap;fontSize=11;fillColor=#60a917;strokeColor=#2D7600;fontColor=#ffffff;" parent="1" vertex="1">
          <mxGeometry x="1552" y="363.46" width="30" height="30" as="geometry" />
        </mxCell>
        <UserObject label="return _EVENT_A_FAULT" id="a_NrzUOy0uOCVNg9u8zf-187">
          <mxCell style="rounded=1;whiteSpace=wrap;html=1;arcSize=50;fillColor=#a20025;strokeColor=#6F0000;fontColor=#ffffff;" parent="1" vertex="1">
            <mxGeometry x="1292" y="466.46000000000015" width="250" height="43.86" as="geometry" />
          </mxCell>
        </UserObject>
        <UserObject label="return _EVENT_A_DONE" id="Bvlm6xu5cDF6GILUwSXI-1">
          <mxCell style="rounded=1;whiteSpace=wrap;html=1;arcSize=50;fillColor=#008a00;strokeColor=#005700;fontColor=#ffffff;" vertex="1" parent="1">
            <mxGeometry x="1792" y="466.46000000000004" width="250" height="43.86" as="geometry" />
          </mxCell>
        </UserObject>
        <mxCell id="Bvlm6xu5cDF6GILUwSXI-3" value="&lt;div&gt;&lt;br&gt;&lt;/div&gt;" style="rounded=0;whiteSpace=wrap;html=1;fontSize=14;dashed=1;glass=0;align=center;verticalAlign=top;fontStyle=1;labelBackgroundColor=#00CCCC;fillColor=#dae8fc;strokeColor=#6c8ebf;" vertex="1" parent="1">
          <mxGeometry x="1260" y="601" width="820" height="325" as="geometry" />
        </mxCell>
        <mxCell id="Bvlm6xu5cDF6GILUwSXI-4" style="edgeStyle=elbowEdgeStyle;rounded=0;orthogonalLoop=1;jettySize=auto;html=1;fontSize=12;startSize=8;endSize=8;exitX=0.5;exitY=1;exitDx=0;exitDy=0;entryX=0.5;entryY=0;entryDx=0;entryDy=0;" edge="1" parent="1" source="Bvlm6xu5cDF6GILUwSXI-5" target="Bvlm6xu5cDF6GILUwSXI-6">
          <mxGeometry relative="1" as="geometry">
            <mxPoint x="1669" y="352" as="targetPoint" />
            <mxPoint x="1508" y="314.5" as="sourcePoint" />
          </mxGeometry>
        </mxCell>
        <object label="prvStates_BEventCheck()" hedietLinkedDataV1_path="../../Libraries/source/TaskElevatorAlgorithm.c" hedietLinkedDataV1_symbol="prvCommonStates_CabinPositionCheck(void)" id="Bvlm6xu5cDF6GILUwSXI-5">
          <mxCell style="ellipse;whiteSpace=wrap;html=1;fillColor=#0050ef;strokeColor=#001DBC;fontColor=#ffffff;rounded=0;spacingBottom=0;" vertex="1" parent="1">
            <mxGeometry x="1542" y="618.5" width="250" height="57.5" as="geometry" />
          </mxCell>
        </object>
        <object label="&lt;p style=&quot;line-height: 20%;&quot;&gt;_LSM_Aevent_ED1&lt;/p&gt;" hedietLinkedDataV1_path="../../Libraries/source/TaskElevatorAlgorithm.c" hedietLinkedDataV1_symbol="FLOWCHART_LSM_INPUT_M1_CHECK" id="Bvlm6xu5cDF6GILUwSXI-6">
          <mxCell style="rounded=0;whiteSpace=wrap;html=1;fontSize=10;dashed=1;glass=0;align=right;verticalAlign=top;fontStyle=1;labelBackgroundColor=#66FF66;fillColor=#d5e8d4;strokeColor=#82b366;" vertex="1" parent="1">
            <mxGeometry x="1272" y="699.46" width="790" height="206.54" as="geometry" />
          </mxCell>
        </object>
        <mxCell id="Bvlm6xu5cDF6GILUwSXI-7" value="_INPUT_B_OFF" style="edgeStyle=orthogonalEdgeStyle;rounded=0;orthogonalLoop=1;jettySize=auto;html=1;exitX=1;exitY=0.5;exitDx=0;exitDy=0;" edge="1" parent="1" source="Bvlm6xu5cDF6GILUwSXI-9" target="Bvlm6xu5cDF6GILUwSXI-13">
          <mxGeometry x="-0.4142" relative="1" as="geometry">
            <mxPoint as="offset" />
            <mxPoint x="1839.9999999999982" y="773.4600000000003" as="sourcePoint" />
            <mxPoint x="1974" y="799" as="targetPoint" />
          </mxGeometry>
        </mxCell>
        <mxCell id="Bvlm6xu5cDF6GILUwSXI-8" value="_INPUT_B_ON" style="edgeStyle=orthogonalEdgeStyle;rounded=0;orthogonalLoop=1;jettySize=auto;html=1;" edge="1" parent="1" source="Bvlm6xu5cDF6GILUwSXI-9" target="Bvlm6xu5cDF6GILUwSXI-12">
          <mxGeometry x="-0.1911" relative="1" as="geometry">
            <mxPoint as="offset" />
            <mxPoint x="1348.8857142857146" y="796.4625425339797" as="targetPoint" />
          </mxGeometry>
        </mxCell>
        <mxCell id="Bvlm6xu5cDF6GILUwSXI-9" value="input-&amp;gt;B" style="rhombus;whiteSpace=wrap;html=1;fillColor=#f8cecc;strokeColor=#b85450;" vertex="1" parent="1">
          <mxGeometry x="1570" y="746.46" width="208" height="45" as="geometry" />
        </mxCell>
        <mxCell id="Bvlm6xu5cDF6GILUwSXI-10" style="edgeStyle=orthogonalEdgeStyle;rounded=0;orthogonalLoop=1;jettySize=auto;html=1;entryX=0.5;entryY=0;entryDx=0;entryDy=0;fontSize=12;startSize=8;endSize=8;exitX=1;exitY=0.5;exitDx=0;exitDy=0;exitPerimeter=0;" edge="1" parent="1" source="Bvlm6xu5cDF6GILUwSXI-11" target="Bvlm6xu5cDF6GILUwSXI-9">
          <mxGeometry relative="1" as="geometry" />
        </mxCell>
        <mxCell id="Bvlm6xu5cDF6GILUwSXI-11" value="Start" style="strokeWidth=2;html=1;shape=mxgraph.flowchart.start_2;whiteSpace=wrap;fontSize=11;fillColor=#60a917;strokeColor=#2D7600;fontColor=#ffffff;" vertex="1" parent="1">
          <mxGeometry x="1552" y="709.46" width="30" height="30" as="geometry" />
        </mxCell>
        <UserObject label="return&amp;nbsp;_EVENT_B_ACTIVE" id="Bvlm6xu5cDF6GILUwSXI-12">
          <mxCell style="rounded=1;whiteSpace=wrap;html=1;arcSize=50;fillColor=#008a00;strokeColor=#005700;fontColor=#ffffff;" vertex="1" parent="1">
            <mxGeometry x="1292" y="812.4600000000002" width="250" height="43.86" as="geometry" />
          </mxCell>
        </UserObject>
        <UserObject label="return _EVENT_B_PASSIVE" id="Bvlm6xu5cDF6GILUwSXI-13">
          <mxCell style="rounded=1;whiteSpace=wrap;html=1;arcSize=50;fillColor=#a20025;strokeColor=#6F0000;fontColor=#ffffff;" vertex="1" parent="1">
            <mxGeometry x="1792" y="812.46" width="250" height="43.86" as="geometry" />
          </mxCell>
        </UserObject>
      </root>
    </mxGraphModel>
  </diagram>
</mxfile>
